<svg width="70" height="28" viewBox="0 0 70 28" fill="none" xmlns="http://www.w3.org/2000/svg">
<path d="M54.7984 7.96179H48.2035V19.0362H54.7984V7.96179Z" fill="#FF5F00"/>
<path d="M48.8828 13.5C48.882 12.4337 49.1171 11.3811 49.5703 10.4219C50.0236 9.46277 50.6831 8.62219 51.499 7.96379C50.4885 7.14728 49.275 6.63955 47.997 6.49861C46.7191 6.35767 45.4284 6.58922 44.2725 7.16679C43.1165 7.74436 42.1419 8.64465 41.4601 9.76476C40.7782 10.8849 40.4166 12.1796 40.4166 13.501C40.4166 14.8224 40.7782 16.1172 41.4601 17.2373C42.1419 18.3574 43.1165 19.2577 44.2725 19.8352C45.4284 20.4128 46.7191 20.6444 47.997 20.5034C49.275 20.3625 50.4885 19.8547 51.499 19.0382C50.6829 18.3796 50.0232 17.5387 49.5699 16.5792C49.1167 15.6197 48.8817 14.5667 48.8828 13.5V13.5Z" fill="#EB001B"/>
<path d="M61.9279 17.8645V17.6375H62.0231V17.5906H61.7966V17.6375H61.8861V17.8645H61.9279ZM62.3675 17.8645V17.5906H62.299L62.219 17.7862L62.1391 17.5906H62.0706V17.8645H62.1201V17.6571L62.1943 17.8351H62.2457L62.3199 17.6571V17.8645H62.3675Z" fill="#F79E1B"/>
<path d="M62.5826 13.5C62.5825 14.8215 62.2209 16.1163 61.5389 17.2365C60.8569 18.3566 59.8822 19.2569 58.7261 19.8344C57.5699 20.4119 56.2791 20.6433 55.0011 20.5021C53.7232 20.361 52.5096 19.853 51.4991 19.0362C52.3147 18.3773 52.9741 17.5365 53.4274 16.5772C53.8808 15.618 54.1164 14.5655 54.1164 13.499C54.1164 12.4325 53.8808 11.38 53.4274 10.4208C52.9741 9.46159 52.3147 8.62078 51.4991 7.9618C52.5096 7.14504 53.7232 6.63705 55.0011 6.49591C56.2791 6.35477 57.5699 6.58617 58.7261 7.16366C59.8822 7.74114 60.8569 8.64142 61.5389 9.76157C62.2209 10.8817 62.5825 12.1765 62.5826 13.498V13.5Z" fill="#F79E1B"/>
<path d="M17.6152 17.8668H15.3549L16.7677 9.18365H19.0283L17.6152 17.8668Z" fill="#0066B3"/>
<path d="M13.4538 9.18365L11.2986 15.1558L11.0436 13.8698L11.0438 13.8703L10.2832 9.96569C10.2832 9.96569 10.1912 9.18365 9.21082 9.18365H5.64813L5.60632 9.33068C5.60632 9.33068 6.6961 9.55713 7.971 10.3234L9.93502 17.8668H12.2902L15.887 9.18365H13.4538Z" fill="#0066B3"/>
<path d="M28.7476 14.7951L29.9357 11.5458L30.6039 14.7951H28.7476ZM31.2352 17.8668H33.3109L31.5011 9.18365H29.6837C28.8443 9.18365 28.6401 9.83074 28.6401 9.83074L25.2686 17.8668H27.6249L28.0964 16.5771H30.9702L31.2352 17.8668Z" fill="#0066B3"/>
<path d="M25.4446 11.272L25.7672 9.40715C25.7672 9.40715 24.7717 9.02856 23.734 9.02856C22.6121 9.02856 19.9481 9.51911 19.9481 11.9031C19.9481 14.1465 23.0748 14.1744 23.0748 15.3524C23.0748 16.5302 20.2704 16.3198 19.3449 15.5765L19.0085 17.5259C19.0085 17.5259 20.018 18.0165 21.5604 18.0165C23.1029 18.0165 25.4306 17.2175 25.4306 15.0437C25.4306 12.7864 22.2758 12.5759 22.2758 11.5946C22.2758 10.6128 24.4772 10.739 25.4446 11.272Z" fill="#0066B3"/>
<path d="M11.0439 13.8703L10.2832 9.96569C10.2832 9.96569 10.1912 9.18365 9.21083 9.18365H5.64813L5.60632 9.33068C5.60632 9.33068 7.3188 9.68558 8.96161 11.0153C10.5317 12.286 11.0439 13.8703 11.0439 13.8703Z" fill="#FAA633"/>
</svg>
